PathFileType	4	(X/Y/Z)	C:\Users\u0145647\OneDrive - KU Leuven\KU Leuven\c3d2osim\CP4\T0\Data\Processed\ViconC3D_CP4_2\CP4_T0_cmj_T1_gapFilled.trc
DataRate	CameraRate	NumFrames	NumMarkers	Units	OrigDataRate	OrigDataStartFrame	OrigNumFrames
100.000000	100.000000	5	47	mm	100.000000	173	459
Frame#	Time	C7			T10			CLAV			STRN			LSHO			RSHO			RBAK			LASI			RASI			LPSI			RPSI			LLAT			RLAT			LF1			LF2			LF3			LTHI			LKNE			LMEK			RF1			RF2			RF3			RTHI			RKNE			RMEK			LT1			LT2			LT3			LTIB			LANK			LMM			RT1			RT2			RT3			RTIB			RANK			RMM			LHEE			LSTL			LLCA			LTOE			LCM5			RHEE			RSTL			RLCA			RTOE			RCM5
		X1	Y1	Z1	X2	Y2	Z2	X3	Y3	Z3	X4	Y4	Z4	X5	Y5	Z5	X6	Y6	Z6	X7	Y7	Z7	X8	Y8	Z8	X9	Y9	Z9	X10	Y10	Z10	X11	Y11	Z11	X12	Y12	Z12	X13	Y13	Z13	X14	Y14	Z14	X15	Y15	Z15	X16	Y16	Z16	X17	Y17	Z17	X18	Y18	Z18	X19	Y19	Z19	X20	Y20	Z20	X21	Y21	Z21	X22	Y22	Z22	X23	Y23	Z23	X24	Y24	Z24	X25	Y25	Z25	X26	Y26	Z26	X27	Y27	Z27	X28	Y28	Z28	X29	Y29	Z29	X30	Y30	Z30	X31	Y31	Z31	X32	Y32	Z32	X33	Y33	Z33	X34	Y34	Z34	X35	Y35	Z35	X36	Y36	Z36	X37	Y37	Z37	X38	Y38	Z38	X39	Y39	Z39	X40	Y40	Z40	X41	Y41	Z41	X42	Y42	Z42	X43	Y43	Z43	X44	Y44	Z44	X45	Y45	Z45	X46	Y46	Z46	X47	Y47	Z47

173	1.72	-92.265	967.69	-93.616	-76.713	874.58	-301.67	-104.7	832.8	-58.744	NaN	NaN	NaN	77.607	891.07	-24.211	-258.66	935.45	-58.884	-227.04	960.32	-150.35	-30.979	619.47	-377.74	-223.97	658.34	-418.53	-47.434	730.58	-521.54	-111.55	747.17	-541.33	33.271	674.42	-380.75	-242.81	743.67	-434.53	92.055	548.35	-297.37	86.599	556.36	-341.19	96.775	517.53	-313.8	156.68	498.86	-254.78	109.54	437.69	-131.93	NaN	NaN	NaN	-337.97	536.38	-366.92	-329.23	570.81	-376.42	-323.52	524.14	-417.9	-392.26	503.95	-324.19	-354.64	444.7	-207.06	NaN	NaN	NaN	134.68	296.84	-223.68	127.69	316.1	-165.35	127.12	337.96	-213.85	169.3	214.2	-194.26	127.28	82.683	-323.93	45.019	76.11	-286.7	-369.36	306.82	-255.21	-362.59	340.98	-216.8	-358.5	356.11	-268.61	-414.43	238.53	-269.9	-354.61	73.695	-329.94	-275.79	75.069	-287.36	71.62	64.217	-362.93	52.93	46.865	-296.17	126.73	54.936	-324.45	131.2	45.942	-196.48	172.43	38.886	-223.2	-299.65	67.675	-363.83	-282.41	40.813	-296.4	-356.13	49.24	-326.38	-375.49	45.412	-202.44	-414.47	36.538	-246.54
174	1.73	-92.905	970.07	-94.172	-76.874	875.12	-301.21	-105.48	835.37	-57.992	NaN	NaN	NaN	76.569	894.71	-23.613	-258.61	938.49	-59.201	-227.29	962.45	-150.88	-31.243	619.3	-375.38	-223.77	657.6	-416.83	-46.811	729.97	-519.76	-111.15	746.27	-539.86	33.35	674.44	-378.28	-242.53	743.03	-433.41	92.566	547.69	-294.58	86.993	555.66	-338.51	97.662	517.06	-311.46	157.39	498.7	-252.76	110.33	436.74	-129.68	NaN	NaN	NaN	-337.04	535.59	-365.25	-328.87	570.1	-374.66	-322.56	523.14	-416.03	-391.77	503.08	-322.47	-354.25	444.22	-205.27	NaN	NaN	NaN	135.32	296.63	-222.68	128.77	315.73	-164.13	127.99	337.95	-212.56	170.15	213.71	-193.78	127.78	82.816	-323.83	45.61	76.275	-286.6	-369.01	306.53	-254.05	-362.95	340.88	-215.6	-357.89	355.86	-267.35	-414.06	238.4	-269.2	-354.4	73.81	-329.78	-275.62	74.853	-287.04	72.188	64.662	-362.83	53.274	47.364	-296.14	127.26	55.075	-324.47	131.66	45.834	-196.5	173.03	38.562	-223.24	-299.4	67.757	-363.54	-282.32	40.588	-296.18	-355.99	49.32	-326.38	-375.57	45.468	-202.41	-414.48	36.615	-246.54
175	1.74	-93.538	972.54	-94.403	-77.024	876.05	-300.76	-106.21	838.36	-57.254	NaN	NaN	NaN	75.567	898.82	-23.18	-258.57	941.93	-59.678	-227.51	964.81	-151.44	-30.891	619.53	-372.96	-223.62	657.27	-415.08	-46.124	729.55	-517.73	-110.56	745.85	-538.34	33.594	674.96	-375.85	-242.27	742.65	-432.17	93.256	547.32	-292.07	87.845	555.53	-336.04	98.116	516.66	-308.6	158.35	497.68	-250.25	110.91	436.01	-127.46	NaN	NaN	NaN	-336.49	534.88	-363.47	-328.49	569.35	-372.94	-321.93	522.33	-414.2	-391.28	502.27	-320.86	-353.9	443.78	-203.74	NaN	NaN	NaN	135.91	296.54	-221.52	129.19	314.94	-162.76	128.97	338	-211.05	171.11	213.27	-193.2	128.25	82.847	-323.53	46.363	76.571	-286.62	-368.64	306.39	-253.14	-362.17	340.33	-214.52	-357.44	355.7	-266.25	-413.8	238.4	-268.65	-354.21	73.875	-329.64	-275.52	74.576	-286.68	72.882	65.161	-362.81	53.905	47.865	-296.33	127.94	55.288	-324.45	132.17	45.71	-196.45	173.52	38.162	-223.14	-299.1	67.771	-363.27	-282.23	40.337	-295.95	-355.89	49.431	-326.27	-375.64	45.435	-202.42	-414.57	36.679	-246.57
176	1.75	-94.129	975.67	-94.941	-77.143	877.26	-300.3	-106.81	841.95	-56.436	NaN	NaN	NaN	74.589	903.55	-22.688	-258.65	945.99	-60.252	-227.65	967.75	-152.22	-32.888	619.85	-370.13	-223.34	657.14	-413.32	-45.544	729.4	-515.65	-109.97	745.66	-536.74	33.751	675.55	-373.1	-241.97	742.6	-430.99	93.675	547.07	-289.04	88.43	555.49	-333.08	98.84	516.44	-305.81	158.95	497.65	-247.43	111.26	435.14	-124.8	NaN	NaN	NaN	-336.31	534.67	-361.94	-327.52	568.61	-371.29	-321.2	521.78	-412.63	-390.87	501.77	-319.42	-353.69	443.43	-202.3	NaN	NaN	NaN	136.49	296.44	-220.09	130.7	314.54	-161.2	128.66	337.44	-209.23	171.97	213.14	-192.47	128.82	82.875	-323.13	47.586	76.632	-286.52	-368.36	306.18	-252.29	-362.79	340.35	-213.62	-357.11	355.49	-265.14	-413.57	238.35	-268.26	-353.97	73.92	-329.53	-275.44	74.393	-286.4	73.75	65.788	-362.83	54.64	48.325	-296.47	128.75	55.583	-324.42	132.64	45.585	-196.41	174.29	37.82	-223.15	-298.9	67.806	-363.07	-282.19	40.234	-295.68	-355.78	49.528	-326.22	-375.91	45.483	-202.52	-414.7	36.739	-246.58
177	1.76	-94.655	979.35	-95.461	-77.24	878.88	-299.79	-107.46	846.03	-55.655	NaN	NaN	NaN	73.849	908.8	-22.376	-258.66	950.87	-60.749	-227.81	971.16	-153.06	-28.815	621.81	-368.01	-223.35	657.5	-411.51	-44.917	729.32	-513.32	-109.15	745.83	-535.1	33.946	676.52	-370.28	-241.61	743.01	-429.73	94.351	547.04	-286.14	88.84	555.52	-330.06	99.455	516.46	-302.9	159.18	497.72	-244.61	112.13	434.43	-122.58	NaN	NaN	NaN	-335.31	534.08	-360.34	-327.14	568.25	-369.72	-320.42	521.42	-411.06	-390.24	501.17	-318.13	-353.62	443.03	-201.03	NaN	NaN	NaN	136.91	296.2	-218.42	130.91	314.09	-159.79	129.78	337.59	-207.72	172.64	212.87	-191.58	129.9	83.454	-323.1	48.452	77.03	-286.57	-368.19	305.89	-251.46	-362.92	340.09	-212.77	-356.8	355.29	-264.2	-413.44	238.26	-268.01	-353.87	73.992	-329.43	-275.41	74.223	-286.15	74.853	66.568	-362.79	55.433	48.755	-296.56	129.69	55.992	-324.33	133.14	45.497	-196.39	174.78	37.371	-223	-298.66	67.857	-362.86	-282.17	40.012	-295.42	-355.68	49.593	-326.21	-376.12	45.449	-202.62	-414.79	36.695	-246.78
